<mxfile host="app.diagrams.net" modified="2024-05-15T06:38:17.952Z" agent="Mozilla/5.0 (Windows NT 10.0; Win64; x64) AppleWebKit/537.36 (KHTML, like Gecko) Chrome/124.0.0.0 Safari/537.36 Edg/124.0.0.0" version="23.1.5" etag="7I_vcnyJA0s7VpcjqMUV" type="github">
  <diagram name="Page-1" id="_nS2XY763YBL0ietwwEy">
    <mxGraphModel>
      <root>
        <mxCell id="0" />
        <mxCell id="1" parent="0" />
      </root>
    </mxGraphModel>
  </diagram>
</mxfile>
